# xmcd
#
# Track frame offsets:
#   150
#   11969
#   25171
#   38017
#   50253
#   63445
#   78970
#   95203
#   110103
#   121003
#   131903
#   143345
#   158150
#   168353
#   180586
#   196819
#   206387
#
# Disc length: 2924 seconds
#
# Revision: 0
# Processed by: cddbd v1.5.2PL0 Copyright (c) Steve Scherf et al.
# Submitted via: uFREEDB ActiveX Control 1.5
#
DISCID=df0b6a11
DTITLE=cem - 100preconceito
DYEAR=1900
DGENRE=Alternative
TTITLE0=cem01
TTITLE1=cem02
TTITLE2=cem03
TTITLE3=cem04
TTITLE4=cem05
TTITLE5=cem06
TTITLE6=cem07
TTITLE7=cem08
TTITLE8=cem09
TTITLE9=cem10
TTITLE10=cem11
TTITLE11=cem12
TTITLE12=cem13
TTITLE13=cem14
TTITLE14=cem15
TTITLE15=cem16
TTITLE16=cem17
EXTD=
EXTT0=
EXTT1=
EXTT2=
EXTT3=
EXTT4=
EXTT5=
EXTT6=
EXTT7=
EXTT8=
EXTT9=
EXTT10=
EXTT11=
EXTT12=
EXTT13=
EXTT14=
EXTT15=
EXTT16=
PLAYORDER=
